<svg width="32" height="32" viewBox="0 0 32 32" fill="none" xmlns="http://www.w3.org/2000/svg">
<path fill-rule="evenodd" clip-rule="evenodd" d="M0.333333 9.33341C0.333333 8.36095 0.719642 7.42832 1.40727 6.74069C2.09491 6.05306 3.02754 5.66675 4 5.66675H21.3333C22.3058 5.66675 23.2384 6.05306 23.9261 6.74069C24.6137 7.42832 25 8.36095 25 9.33341V12.1721C24.8391 12.2787 24.6876 12.4032 24.5453 12.5454L20.5453 16.5454C20.2668 16.824 20.0458 17.1547 19.895 17.5187C19.7442 17.8827 19.6666 18.2728 19.6666 18.6667C19.6666 19.0607 19.7442 19.4508 19.895 19.8148C20.0458 20.1788 20.2668 20.5095 20.5453 20.7881L24.4133 24.6561C24.0809 25.1707 23.6249 25.5939 23.0869 25.8869C22.5488 26.1799 21.946 26.3334 21.3333 26.3334H4C3.02754 26.3334 2.09491 25.9471 1.40727 25.2595C0.719642 24.5718 0.333333 23.6392 0.333333 22.6667V9.33341ZM21.96 17.9601L25 14.9201V22.4134L23.6667 21.0801L21.96 19.3734C21.7727 19.1859 21.6675 18.9317 21.6675 18.6667C21.6675 18.4017 21.7727 18.1476 21.96 17.9601ZM7.22133 11.1681C7.00065 11.0244 6.73222 10.9736 6.47431 11.0267C6.2164 11.0798 5.98982 11.2324 5.84376 11.4515C5.6977 11.6706 5.64395 11.9384 5.69417 12.1969C5.74439 12.4554 5.89453 12.6836 6.112 12.8321L12.112 16.8321C12.2763 16.9416 12.4693 17 12.6667 17C12.8641 17 13.0571 16.9416 13.2213 16.8321L19.2213 12.8321C19.4388 12.6836 19.5889 12.4554 19.6392 12.1969C19.6894 11.9384 19.6356 11.6706 19.4896 11.4515C19.3435 11.2324 19.1169 11.0798 18.859 11.0267C18.6011 10.9736 18.3327 11.0244 18.112 11.1681L12.6667 14.7987L7.22133 11.1681Z" fill="#333333"/>
<path fill-rule="evenodd" clip-rule="evenodd" d="M27.3733 13.9602C27.5606 14.1477 27.6658 14.4018 27.6658 14.6668C27.6658 14.9318 27.5606 15.186 27.3733 15.3735L25.08 17.6668H30.6667C30.9319 17.6668 31.1862 17.7722 31.3738 17.9597C31.5613 18.1473 31.6667 18.4016 31.6667 18.6668C31.6667 18.9321 31.5613 19.1864 31.3738 19.374C31.1862 19.5615 30.9319 19.6668 30.6667 19.6668H25.08L27.3733 21.9602C27.4716 22.0517 27.5504 22.1621 27.605 22.2848C27.6597 22.4075 27.6891 22.5399 27.6915 22.6741C27.6938 22.8084 27.6691 22.9418 27.6188 23.0663C27.5685 23.1908 27.4937 23.3039 27.3987 23.3989C27.3038 23.4939 27.1906 23.5687 27.0661 23.619C26.9416 23.6693 26.8082 23.694 26.674 23.6916C26.5397 23.6893 26.4073 23.6599 26.2846 23.6052C26.1619 23.5506 26.0515 23.4718 25.96 23.3735L21.96 19.3735C21.7727 19.186 21.6675 18.9318 21.6675 18.6668C21.6675 18.4018 21.7727 18.1477 21.96 17.9602L25.96 13.9602C26.1475 13.7729 26.4017 13.6677 26.6667 13.6677C26.9317 13.6677 27.1858 13.7729 27.3733 13.9602Z" fill="#333333"/>
</svg>
