<svg width="36" height="36" viewBox="0 0 36 36" fill="none" xmlns="http://www.w3.org/2000/svg">
<path d="M10 0H6C5.21236 0.000127916 4.43251 0.155852 3.70523 0.458229C2.97795 0.760605 2.31756 1.20368 1.762 1.762C1.20368 2.31756 0.760605 2.97795 0.458229 3.70523C0.155852 4.43251 0.000127916 5.21236 0 6V10C0 11.65 0.674 13.15 1.762 14.238C2.31756 14.7963 2.97795 15.2394 3.70523 15.5418C4.43251 15.8441 5.21236 15.9999 6 16H10C10.7876 15.9999 11.5675 15.8441 12.2948 15.5418C13.0221 15.2394 13.6824 14.7963 14.238 14.238C14.7963 13.6824 15.2394 13.0221 15.5418 12.2948C15.8441 11.5675 15.9999 10.7876 16 10V6C15.9999 5.21236 15.8441 4.43251 15.5418 3.70523C15.2394 2.97795 14.7963 2.31756 14.238 1.762C13.6824 1.20368 13.0221 0.760605 12.2948 0.458229C11.5675 0.155852 10.7876 0.000127916 10 0ZM30 0H26C25.2124 0.000127916 24.4325 0.155852 23.7052 0.458229C22.9779 0.760605 22.3176 1.20368 21.762 1.762C21.2037 2.31756 20.7606 2.97795 20.4582 3.70523C20.1559 4.43251 20.0001 5.21236 20 6V10C20 11.65 20.674 13.15 21.762 14.238C22.3176 14.7963 22.9779 15.2394 23.7052 15.5418C24.4325 15.8441 25.2124 15.9999 26 16H30C30.7876 15.9999 31.5675 15.8441 32.2948 15.5418C33.0221 15.2394 33.6824 14.7963 34.238 14.238C34.7963 13.6824 35.2394 13.0221 35.5418 12.2948C35.8441 11.5675 35.9999 10.7876 36 10V6C35.9999 5.21236 35.8441 4.43251 35.5418 3.70523C35.2394 2.97795 34.7963 2.31756 34.238 1.762C33.6824 1.20368 33.0221 0.760605 32.2948 0.458229C31.5675 0.155852 30.7876 0.000127916 30 0ZM10 20H6C5.21236 20.0001 4.43251 20.1559 3.70523 20.4582C2.97795 20.7606 2.31756 21.2037 1.762 21.762C1.20368 22.3176 0.760605 22.9779 0.458229 23.7052C0.155852 24.4325 0.000127916 25.2124 0 26V30C0 31.65 0.674 33.15 1.762 34.238C2.31756 34.7963 2.97795 35.2394 3.70523 35.5418C4.43251 35.8441 5.21236 35.9999 6 36H10C10.7876 35.9999 11.5675 35.8441 12.2948 35.5418C13.0221 35.2394 13.6824 34.7963 14.238 34.238C14.7963 33.6824 15.2394 33.0221 15.5418 32.2948C15.8441 31.5675 15.9999 30.7876 16 30V26C15.9999 25.2124 15.8441 24.4325 15.5418 23.7052C15.2394 22.9779 14.7963 22.3176 14.238 21.762C13.6824 21.2037 13.0221 20.7606 12.2948 20.4582C11.5675 20.1559 10.7876 20.0001 10 20ZM30 20H26C25.2124 20.0001 24.4325 20.1559 23.7052 20.4582C22.9779 20.7606 22.3176 21.2037 21.762 21.762C21.2037 22.3176 20.7606 22.9779 20.4582 23.7052C20.1559 24.4325 20.0001 25.2124 20 26V30C20 31.65 20.674 33.15 21.762 34.238C22.3176 34.7963 22.9779 35.2394 23.7052 35.5418C24.4325 35.8441 25.2124 35.9999 26 36H30C30.7876 35.9999 31.5675 35.8441 32.2948 35.5418C33.0221 35.2394 33.6824 34.7963 34.238 34.238C34.7963 33.6824 35.2394 33.0221 35.5418 32.2948C35.8441 31.5675 35.9999 30.7876 36 30V26C35.9999 25.2124 35.8441 24.4325 35.5418 23.7052C35.2394 22.9779 34.7963 22.3176 34.238 21.762C33.6824 21.2037 33.0221 20.7606 32.2948 20.4582C31.5675 20.1559 30.7876 20.0001 30 20Z" fill="#00369B"/>
</svg>
