<svg width="58" height="58" viewBox="0 0 58 58" fill="none" xmlns="http://www.w3.org/2000/svg">
<path id="Soft Star" d="M28.7226 0.746443C28.7348 0.643872 28.7749 0.591444 28.8129 0.560673C28.8573 0.524786 28.9234 0.5 29 0.5C29.0767 0.5 29.1427 0.524786 29.1871 0.560673C29.2251 0.591444 29.2652 0.643872 29.2774 0.746443L30.1898 8.43615C31.3952 18.5952 39.4048 26.6048 49.5638 27.8102L57.2535 28.7226C57.2535 28.7226 57.2535 28.7226 57.2535 28.7226C57.3561 28.7348 57.4086 28.7749 57.4393 28.813C57.4752 28.8573 57.5 28.9234 57.5 29C57.5 29.0766 57.4752 29.1427 57.4393 29.1871C57.4086 29.2251 57.3561 29.2652 57.2535 29.2774C57.2535 29.2774 57.2535 29.2774 57.2535 29.2774L49.5638 30.1898C39.4048 31.3952 31.3952 39.4048 30.1898 49.5638L29.2774 57.2535C29.2774 57.2535 29.2774 57.2535 29.2774 57.2535C29.2652 57.3561 29.2251 57.4086 29.1871 57.4393C29.1427 57.4752 29.0766 57.5 29 57.5C28.9234 57.5 28.8573 57.4752 28.813 57.4393C28.7749 57.4086 28.7348 57.3561 28.7226 57.2535C28.7226 57.2535 28.7226 57.2535 28.7226 57.2535L27.8102 49.5638C26.6048 39.4048 18.5952 31.3952 8.43615 30.1898L0.746443 29.2774C0.643872 29.2652 0.591444 29.2251 0.560673 29.1871C0.524786 29.1427 0.5 29.0767 0.5 29C0.5 28.9234 0.524786 28.8573 0.560673 28.8129C0.591444 28.7749 0.643872 28.7348 0.746443 28.7226L8.43615 27.8102C18.5952 26.6048 26.6048 18.5952 27.8102 8.43615L28.7226 0.746443Z" stroke="#00369B"/>
</svg>
